<svg xmlns="http://www.w3.org/2000/svg" viewBox="0 0 64 64" width="64" height="64">
  <defs>
    <linearGradient id="ai-gradient" x1="0%" y1="0%" x2="100%" y2="100%">
      <stop offset="0%" stop-color="#FF2E93" /> <stop offset="50%" stop-color="#FF8000" /> <stop offset="100%" stop-color="#FFD700" /> </linearGradient>
    
    <filter id="ai-glow" x="-30%" y="-30%" width="160%" height="160%">
      <feGaussianBlur stdDeviation="2.5" result="blur" />
      <feComposite in="SourceGraphic" in2="blur" operator="over"/>
    </filter>
  </defs>

  <path d="M 32 6 Q 32 32 58 32 Q 32 32 32 58 Q 32 32 6 32 Q 32 32 32 6 Z" fill="url(#ai-gradient)" filter="url(#ai-glow)"/>
  
  <path d="M 50 8 Q 50 18 60 18 Q 50 18 50 28 Q 50 18 40 18 Q 50 18 50 8 Z" fill="#FFD700" filter="url(#ai-glow)"/>
  
  <path d="M 16 40 Q 16 48 24 48 Q 16 48 16 56 Q 16 48 8 48 Q 16 48 16 40 Z" fill="#FF2E93" filter="url(#ai-glow)"/>
</svg>
